<svg xmlns="http://www.w3.org/2000/svg" width="1347.462" height="232.074" viewBox="286.02 423.81 1347.462 232.074"><defs><clipPath id="a"><path d="M340 424h28v26h-28Zm0 0"/></clipPath><clipPath id="b"><path d="M367.516 425.582v22.543c0 .7-.57 1.27-1.27 1.27H342.06a1.27 1.27 0 0 1-1.27-1.27v-22.543c0-.7.566-1.27 1.27-1.27h24.187c.7 0 1.27.57 1.27 1.27m0 0" clip-rule="evenodd"/></clipPath><clipPath id="d"><path d="M340 423h29v27h-29Zm0 0"/></clipPath><clipPath id="e"><path d="M368.016 425.582v22.543a1.77 1.77 0 0 1-1.77 1.77H342.06a1.77 1.77 0 0 1-1.77-1.77v-22.543c0-.977.793-1.77 1.77-1.77h24.187c.977 0 1.77.793 1.77 1.77m-1 0a.77.77 0 0 0-.77-.77H342.06a.77.77 0 0 0-.77.77v22.543c0 .426.344.77.77.77h24.187c.422 0 .77-.344.77-.77Zm0 0" clip-rule="evenodd"/></clipPath><clipPath id="g"><path d="M286 451h28v26h-28Zm0 0"/></clipPath><clipPath id="h"><path d="M313.262 453.09v22.543c0 .699-.57 1.27-1.27 1.27h-24.187a1.27 1.27 0 0 1-1.27-1.27V453.09c0-.7.567-1.27 1.27-1.27h24.187c.7 0 1.27.57 1.27 1.27m0 0" clip-rule="evenodd"/></clipPath><clipPath id="j"><path d="M286 451h28v27h-28Zm0 0"/></clipPath><clipPath id="k"><path d="M313.762 453.09v22.543a1.77 1.77 0 0 1-1.77 1.77h-24.187a1.77 1.77 0 0 1-1.77-1.77V453.09c0-.977.793-1.77 1.77-1.77h24.187c.977 0 1.77.793 1.77 1.77m-1 0a.77.77 0 0 0-.77-.77h-24.187a.77.77 0 0 0-.77.77v22.543c0 .426.344.77.77.77h24.187c.422 0 .77-.344.77-.77Zm0 0" clip-rule="evenodd"/></clipPath><clipPath id="m"><path d="M303 510h27v27h-27Zm0 0"/></clipPath><clipPath id="n"><path d="M329.875 512.234v22.543c0 .7-.57 1.27-1.27 1.27h-24.187c-.7 0-1.27-.57-1.27-1.27v-22.543c0-.703.57-1.27 1.27-1.27h24.187c.7 0 1.27.567 1.27 1.27m0 0" clip-rule="evenodd"/></clipPath><clipPath id="p"><path d="M302 510h29v27h-29Zm0 0"/></clipPath><clipPath id="q"><path d="M330.375 512.234v22.543a1.77 1.77 0 0 1-1.77 1.77h-24.187a1.77 1.77 0 0 1-1.77-1.77v-22.543c0-.976.793-1.77 1.77-1.77h24.187c.977 0 1.77.794 1.77 1.77m-1 0a.77.77 0 0 0-.77-.77h-24.187a.77.77 0 0 0-.77.77v22.543c0 .422.344.77.77.77h24.187c.426 0 .77-.348.77-.77Zm0 0" clip-rule="evenodd"/></clipPath><clipPath id="s"><path d="M440 465h28v26h-28Zm0 0"/></clipPath><clipPath id="t"><path d="M467.434 467.008v22.543c0 .699-.57 1.27-1.27 1.27h-24.187a1.27 1.27 0 0 1-1.27-1.27v-22.543c0-.7.566-1.27 1.27-1.27h24.187c.7 0 1.27.57 1.27 1.27m0 0" clip-rule="evenodd"/></clipPath><clipPath id="v"><path d="M483 466h28v26h-28Zm0 0"/></clipPath><clipPath id="w"><path d="M510.086 467.29v22.542c0 .7-.57 1.27-1.27 1.27H484.63c-.7 0-1.27-.57-1.27-1.27v-22.543c0-.7.57-1.27 1.27-1.27h24.187c.7 0 1.27.57 1.27 1.27m0 0" clip-rule="evenodd"/></clipPath><clipPath id="y"><path d="M481 507h28v26h-28Zm0 0"/></clipPath><clipPath id="z"><path d="M508.473 508.29v22.542c0 .7-.567 1.27-1.27 1.27h-24.187c-.7 0-1.266-.57-1.266-1.27v-22.543c0-.7.566-1.27 1.266-1.27h24.187c.703 0 1.27.57 1.27 1.27m0 0" clip-rule="evenodd"/></clipPath><clipPath id="B"><path d="M481 548h27v26h-27Zm0 0"/></clipPath><clipPath id="C"><path d="M507.867 549.64v22.544c0 .699-.566 1.265-1.27 1.265H482.41c-.7 0-1.27-.566-1.27-1.265V549.64c0-.703.57-1.27 1.27-1.27h24.188c.703 0 1.27.567 1.27 1.27m0 0" clip-rule="evenodd"/></clipPath><clipPath id="E"><path d="M482 589h28v26h-28Zm0 0"/></clipPath><clipPath id="F"><path d="M509.414 590.523v22.543c0 .704-.57 1.27-1.27 1.27h-24.187c-.7 0-1.27-.566-1.27-1.27v-22.543c0-.699.57-1.265 1.27-1.265h24.188c.699 0 1.27.566 1.27 1.265m0 0" clip-rule="evenodd"/></clipPath><clipPath id="H"><path d="M441 507h28v26h-28Zm0 0"/></clipPath><clipPath id="I"><path d="M468.164 508.582v22.543c0 .7-.566 1.27-1.266 1.27h-24.187a1.27 1.27 0 0 1-1.27-1.27v-22.543c0-.7.567-1.27 1.27-1.27h24.187c.7 0 1.266.57 1.266 1.27m0 0" clip-rule="evenodd"/></clipPath><clipPath id="K"><path d="M440 548h28v26h-28Zm0 0"/></clipPath><clipPath id="L"><path d="M467.594 550.113v22.543c0 .7-.57 1.27-1.27 1.27h-24.187c-.7 0-1.27-.57-1.27-1.27v-22.543c0-.699.57-1.27 1.27-1.27h24.187c.7 0 1.27.571 1.27 1.27m0 0" clip-rule="evenodd"/></clipPath><clipPath id="N"><path d="M441 590h27v27h-27Zm0 0"/></clipPath><clipPath id="O"><path d="M467.781 592.223v22.543c0 .699-.57 1.27-1.27 1.27h-24.187c-.699 0-1.27-.571-1.27-1.27v-22.543c0-.7.571-1.27 1.27-1.27h24.188c.699 0 1.27.57 1.27 1.27m0 0" clip-rule="evenodd"/></clipPath><clipPath id="Q"><path d="M344 550h28v27h-28Zm0 0"/></clipPath><clipPath id="R"><path d="M371.117 552.219v22.543c0 .699-.57 1.265-1.27 1.265H345.66c-.7 0-1.27-.566-1.27-1.265v-22.543c0-.703.57-1.27 1.27-1.27h24.188c.699 0 1.27.567 1.27 1.27m0 0" clip-rule="evenodd"/></clipPath><clipPath id="T"><path d="M343 550h29v27h-29Zm0 0"/></clipPath><clipPath id="U"><path d="M371.617 552.219v22.543a1.77 1.77 0 0 1-1.77 1.765H345.66a1.77 1.77 0 0 1-1.77-1.765v-22.543c0-.977.794-1.77 1.77-1.77h24.188c.976 0 1.77.793 1.77 1.77m-1 0a.77.77 0 0 0-.77-.77H345.66a.77.77 0 0 0-.77.77v22.543c0 .422.344.765.77.765h24.188c.425 0 .77-.343.77-.765Zm0 0" clip-rule="evenodd"/></clipPath><clipPath id="W"><path d="M327 622h28v26h-28Zm0 0"/></clipPath><clipPath id="X"><path d="M354.25 624v22.543c0 .7-.57 1.27-1.27 1.27h-24.187c-.7 0-1.27-.57-1.27-1.27V624c0-.7.57-1.27 1.27-1.27h24.187c.7 0 1.27.57 1.27 1.27m0 0" clip-rule="evenodd"/></clipPath><clipPath id="Z"><path d="M327 622h28v27h-28Zm0 0"/></clipPath><clipPath id="aa"><path d="M354.75 624v22.543a1.77 1.77 0 0 1-1.77 1.77h-24.187a1.77 1.77 0 0 1-1.77-1.77V624c0-.977.793-1.77 1.77-1.77h24.187c.977 0 1.77.793 1.77 1.77m-1 0a.77.77 0 0 0-.77-.77h-24.187a.77.77 0 0 0-.77.77v22.543c0 .426.344.77.77.77h24.187a.77.77 0 0 0 .77-.77Zm0 0" clip-rule="evenodd"/></clipPath><linearGradient id="c" x1="0" x2="1" y1="0" y2="0" gradientTransform="matrix(26.7254 0 0 25.0802 340.788 436.853)" gradientUnits="userSpaceOnUse"><stop offset="0" stop-color="#322205"/><stop offset=".414" stop-color="#5d2910"/><stop offset=".594" stop-color="#712c15"/><stop offset=".641" stop-color="#752d16"/><stop offset="1" stop-color="#9c3320"/></linearGradient><linearGradient id="f" x1="-.019" x2="1.019" y1="0" y2="0" gradientTransform="matrix(26.7254 0 0 25.0802 340.788 436.853)" gradientUnits="userSpaceOnUse"><stop offset="0" stop-color="#322205"/><stop offset=".023" stop-color="#322205"/><stop offset=".063" stop-color="#362306"/><stop offset=".945" stop-color="#98321f"/><stop offset=".984" stop-color="#9c3320"/><stop offset="1" stop-color="#9c3320"/></linearGradient><linearGradient id="i" x1="0" x2="1" y1="0" y2="0" gradientTransform="matrix(26.7254 0 0 25.0802 286.534 464.361)" gradientUnits="userSpaceOnUse"><stop offset="0" stop-color="#322205"/><stop offset=".5" stop-color="#4d260c"/><stop offset=".52" stop-color="#51270d"/><stop offset="1" stop-color="#9c3320"/></linearGradient><linearGradient id="l" x1="-.019" x2="1.019" y1="0" y2="0" gradientTransform="matrix(26.7254 0 0 25.0802 286.534 464.361)" gradientUnits="userSpaceOnUse"><stop offset="0" stop-color="#322205"/><stop offset=".023" stop-color="#322205"/><stop offset=".063" stop-color="#362306"/><stop offset=".945" stop-color="#98321f"/><stop offset=".984" stop-color="#9c3320"/><stop offset="1" stop-color="#9c3320"/></linearGradient><linearGradient id="o" x1="0" x2="1" y1="0" y2="0" gradientTransform="matrix(26.7254 0 0 25.0802 303.149 523.505)" gradientUnits="userSpaceOnUse"><stop offset="0" stop-color="#322205"/><stop offset=".5" stop-color="#4d260c"/><stop offset=".52" stop-color="#51270d"/><stop offset="1" stop-color="#9c3320"/></linearGradient><linearGradient id="r" x1="-.019" x2="1.019" y1="0" y2="0" gradientTransform="matrix(26.7254 0 0 25.0802 303.149 523.505)" gradientUnits="userSpaceOnUse"><stop offset="0" stop-color="#322205"/><stop offset=".023" stop-color="#322205"/><stop offset=".063" stop-color="#362306"/><stop offset=".945" stop-color="#98321f"/><stop offset=".984" stop-color="#9c3320"/><stop offset="1" stop-color="#9c3320"/></linearGradient><linearGradient id="u" x1="0" x2="1" y1="0" y2="0" gradientTransform="matrix(26.7254 0 0 25.0802 440.706 478.279)" gradientUnits="userSpaceOnUse"><stop offset="0" stop-color="#ea5129"/><stop offset="1" stop-color="#f38336"/></linearGradient><linearGradient id="x" x1="0" x2="1" y1="0" y2="0" gradientTransform="matrix(26.7254 0 0 25.0802 483.359 478.56)" gradientUnits="userSpaceOnUse"><stop offset="0" stop-color="#f38336"/><stop offset="1" stop-color="#e8b142"/></linearGradient><linearGradient id="A" x1="0" x2="1" y1="0" y2="0" gradientTransform="matrix(26.7254 0 0 25.0802 481.749 519.56)" gradientUnits="userSpaceOnUse"><stop offset="0" stop-color="#f38336"/><stop offset="1" stop-color="#e8b142"/></linearGradient><linearGradient id="D" x1="0" x2="1" y1="0" y2="0" gradientTransform="matrix(26.7254 0 0 25.0802 481.142 560.911)" gradientUnits="userSpaceOnUse"><stop offset="0" stop-color="#f38336"/><stop offset="1" stop-color="#e8b142"/></linearGradient><linearGradient id="G" x1="0" x2="1" y1="0" y2="0" gradientTransform="matrix(26.7254 0 0 25.0802 482.687 601.797)" gradientUnits="userSpaceOnUse"><stop offset="0" stop-color="#f38336"/><stop offset="1" stop-color="#e8b142"/></linearGradient><linearGradient id="J" x1="0" x2="1" y1="0" y2="0" gradientTransform="matrix(26.7254 0 0 25.0802 441.441 519.854)" gradientUnits="userSpaceOnUse"><stop offset="0" stop-color="#ea5129"/><stop offset="1" stop-color="#f38336"/></linearGradient><linearGradient id="M" x1="0" x2="1" y1="0" y2="0" gradientTransform="matrix(26.7254 0 0 25.0802 440.867 561.384)" gradientUnits="userSpaceOnUse"><stop offset="0" stop-color="#ea5129"/><stop offset="1" stop-color="#f38336"/></linearGradient><linearGradient id="P" x1="0" x2="1" y1="0" y2="0" gradientTransform="matrix(26.7254 0 0 25.0802 441.056 603.494)" gradientUnits="userSpaceOnUse"><stop offset="0" stop-color="#ea5129"/><stop offset="1" stop-color="#f38336"/></linearGradient><linearGradient id="S" x1="0" x2="1" y1="0" y2="0" gradientTransform="matrix(26.7254 0 0 25.0802 344.391 563.489)" gradientUnits="userSpaceOnUse"><stop offset="0" stop-color="#322205"/><stop offset=".5" stop-color="#4d260c"/><stop offset=".52" stop-color="#51270d"/><stop offset="1" stop-color="#9c3320"/></linearGradient><linearGradient id="V" x1="-.019" x2="1.019" y1="0" y2="0" gradientTransform="matrix(26.7254 0 0 25.0802 344.391 563.489)" gradientUnits="userSpaceOnUse"><stop offset="0" stop-color="#322205"/><stop offset=".023" stop-color="#322205"/><stop offset=".063" stop-color="#362306"/><stop offset=".945" stop-color="#98321f"/><stop offset=".984" stop-color="#9c3320"/><stop offset="1" stop-color="#9c3320"/></linearGradient><linearGradient id="Y" x1="0" x2="1" y1="0" y2="0" gradientTransform="matrix(26.7254 0 0 25.0802 327.524 635.271)" gradientUnits="userSpaceOnUse"><stop offset="0" stop-color="#322205"/><stop offset=".5" stop-color="#4d260c"/><stop offset=".52" stop-color="#51270d"/><stop offset="1" stop-color="#9c3320"/></linearGradient><linearGradient id="ab" x1="-.019" x2="1.019" y1="0" y2="0" gradientTransform="matrix(26.7254 0 0 25.0802 327.524 635.271)" gradientUnits="userSpaceOnUse"><stop offset="0" stop-color="#322205"/><stop offset=".023" stop-color="#322205"/><stop offset=".063" stop-color="#362306"/><stop offset=".945" stop-color="#98321f"/><stop offset=".984" stop-color="#9c3320"/><stop offset="1" stop-color="#9c3320"/></linearGradient></defs><path fill="#322205" d="M601.742 624.406V460.852h61.196q18.784-.001 31.609 7.046 12.822 7.051 19.398 19.27c4.383 8.144 6.575 17.43 6.575 27.848q0 15.661-6.633 27.855-6.638 12.193-19.563 19.195-12.924 7.008-31.867 7.008h-40.535v-24.14h36.66q11.139 0 18.211-3.856c4.715-2.566 8.191-6.11 10.422-10.621 2.234-4.516 3.351-9.66 3.351-15.441q0-8.754-3.351-15.434c-2.23-4.453-5.719-7.934-10.457-10.437q-7.108-3.76-18.313-3.758h-27.39v139.02Zm143.708 0V501.684h28.538v122.722Zm14.269-140.066q-6.804.001-11.692-4.61-4.882-4.612-4.882-10.976 0-6.587 4.882-11.14c3.258-3.04 7.157-4.555 11.692-4.555 4.61 0 8.543 1.515 11.8 4.554q4.887 4.552 4.887 11.032 0 6.474-4.886 11.085t-11.801 4.61m34.847 140.066 47.778-74.058-.07 22.101-45.297-70.765h31.386l12.492 20.855q5.491 9.38 9.77 18.262a478 478 0 0 0 8.688 17.176h-11.778a243 243 0 0 0 8.676-17.157q4.075-8.9 9.754-18.28l12.902-20.856h30.793l-45.914 71.289v-21.711l47.73 73.144h-31.199l-15.082-24.59c-3.691-6.183-6.972-12.207-9.843-18.062a385 385 0 0 0-8.766-16.867h11.851a285 285 0 0 0-8.343 16.867c-2.668 5.855-5.844 11.879-9.532 18.062l-15.101 24.59Zm171.504 2.535q-11.671.001-21.011-4.21-9.335-4.214-14.739-12.47-5.4-8.255-5.398-20.366 0-10.381 3.894-17.165c2.594-4.523 6.118-8.136 10.567-10.847q6.675-4.062 15.027-6.149a126 126 0 0 1 17.27-3.02q10.74-1.19 17.398-2.077 6.661-.887 9.813-2.852 3.147-1.967 3.148-6.11v-.577c0-4.043-.809-7.465-2.437-10.266q-2.443-4.194-7.2-6.437-4.76-2.241-11.78-2.243-7.12 0-12.352 2.192-5.229 2.191-8.536 5.695c-2.199 2.336-3.816 4.863-4.843 7.586l-26.457-5.426c2.433-7.254 6.18-13.242 11.23-17.96 5.055-4.723 11.082-8.25 18.09-10.587q10.507-3.504 22.754-3.504 8.637 0 17.472 2.055c5.891 1.367 11.301 3.649 16.22 6.84 4.91 3.191 8.87 7.5 11.87 12.93q4.5 8.139 4.5 20.386v82.047h-27.289v-16.922h-1.16c-1.793 3.485-4.289 6.707-7.508 9.664q-4.827 4.435-11.906 7.118-7.08 2.676-16.637 2.675m7.317-21.207q8.842-.001 15.289-3.488 6.45-3.491 9.984-9.285 3.54-5.795 3.54-12.586v-14.523q-1.408 1.146-4.72 2.125-3.308.972-7.457 1.734c-2.761.504-5.472.941-8.12 1.305q-3.98.543-6.75.91-6.427.839-11.56 2.863-5.136 2.02-8.077 5.582-2.942 3.563-2.942 9.207 0 5.298 2.7 8.89c1.8 2.391 4.261 4.204 7.382 5.427q4.677 1.84 10.73 1.84m88.754 18.671V460.852h61.2q18.781-.001 31.61 7.046c8.538 4.7 15.01 11.125 19.39 19.27 4.39 8.144 6.582 17.43 6.582 27.848q.002 15.661-6.64 27.855-6.633 12.193-19.563 19.195-12.925 7.008-31.867 7.008h-40.532v-24.14h36.66q11.145 0 18.211-3.856c4.72-2.566 8.188-6.11 10.418-10.621 2.243-4.516 3.36-9.66 3.36-15.441 0-5.836-1.117-10.98-3.36-15.434-2.23-4.453-5.718-7.934-10.449-10.437-4.738-2.508-10.851-3.758-18.32-3.758h-27.39v139.02Zm143.688 0V501.684h27.64v20.539h1.313q3.358-10.673 11.578-16.446c5.47-3.847 11.73-5.77 18.75-5.77 1.63 0 3.422.075 5.403.227 1.968.153 3.648.36 5.027.618v26.226c-1.168-.383-3.07-.726-5.719-1.031a67 67 0 0 0-7.718-.461c-5.301 0-10.063 1.133-14.274 3.402-4.207 2.266-7.508 5.395-9.887 9.387q-3.583 5.988-3.582 13.855v72.176Zm137.582 2.477q-17.867 0-31.05-7.922c-8.79-5.285-15.579-12.676-20.391-22.176-4.797-9.5-7.2-20.543-7.2-33.129 0-12.726 2.403-23.855 7.2-33.379 4.812-9.523 11.601-16.925 20.39-22.207q13.186-7.921 31.051-7.922c11.961 0 22.328 2.641 31.121 7.922q13.166 7.923 20.38 22.207 7.199 14.288 7.198 33.38.001 18.878-7.199 33.128-7.212 14.249-20.379 22.176c-8.793 5.281-19.16 7.922-31.12 7.922m0-23.168c6.66 0 12.2-1.793 16.602-5.38q6.617-5.378 9.86-14.483 3.25-9.11 3.25-20.278 0-11.272-3.25-20.394-3.243-9.118-9.86-14.492c-4.403-3.586-9.942-5.375-16.602-5.375-6.64 0-12.148 1.789-16.52 5.375-4.378 3.582-7.652 8.402-9.812 14.457q-3.251 9.086-3.25 20.43-.001 11.166 3.25 20.277c2.16 6.07 5.434 10.898 9.813 14.484q6.557 5.379 16.52 5.379m136.85 23.168q-17.866 0-31.051-7.922c-8.79-5.285-15.582-12.676-20.39-22.176q-7.2-14.25-7.2-33.129c0-12.726 2.399-23.855 7.2-33.379 4.808-9.523 11.6-16.925 20.39-22.207q13.184-7.921 31.05-7.922 17.936 0 31.118 7.922c8.781 5.282 15.57 12.684 20.383 22.207q7.197 14.288 7.199 33.38-.002 18.878-7.2 33.128c-4.812 9.5-11.6 16.89-20.382 22.176q-13.183 7.922-31.117 7.922m0-23.168c6.66 0 12.199-1.793 16.597-5.38 4.41-3.585 7.7-8.413 9.86-14.483 2.172-6.075 3.25-12.832 3.25-20.278 0-7.515-1.078-14.312-3.25-20.394-2.16-6.078-5.45-10.91-9.86-14.492-4.398-3.586-9.937-5.375-16.597-5.375-6.64 0-12.153 1.789-16.524 5.375q-6.568 5.374-9.808 14.457-3.251 9.086-3.25 20.43-.001 11.166 3.25 20.277 3.24 9.105 9.808 14.484c4.371 3.586 9.883 5.379 16.524 5.379m148.128-102.031v22.355h-77.48v-22.355Zm-54.992 122.722V489.953q0-12.268 5.133-20.43c3.43-5.445 8.028-9.53 13.82-12.261q8.684-4.097 19.2-4.098 7.53 0 13.347 1.215c3.883.808 6.73 1.527 8.57 2.16l-5.808 22.2q-1.846-.59-4.558-1.169c-1.801-.386-3.903-.582-6.282-.582-5.37 0-9.199 1.313-11.511 3.938-2.297 2.62-3.457 6.355-3.457 11.203v132.277Zm0 0"/><g clip-path="url(#a)"><g clip-path="url(#b)"><path fill="url(#c)" d="M340.79 424.313v25.082h26.726v-25.082Zm0 0"/></g></g><g clip-path="url(#d)"><g clip-path="url(#e)"><path fill="url(#f)" d="M340.29 423.813v26.082h27.726v-26.082Zm0 0"/></g></g><g clip-path="url(#g)"><g clip-path="url(#h)"><path fill="url(#i)" d="M286.535 451.82v25.082h26.727V451.82Zm0 0"/></g></g><g clip-path="url(#j)"><g clip-path="url(#k)"><path fill="url(#l)" d="M286.035 451.32v26.082h27.727V451.32Zm0 0"/></g></g><g clip-path="url(#m)"><g clip-path="url(#n)"><path fill="url(#o)" d="M303.148 510.965v25.082h26.727v-25.082Zm0 0"/></g></g><g clip-path="url(#p)"><g clip-path="url(#q)"><path fill="url(#r)" d="M302.648 510.465v26.082h27.727v-26.082Zm0 0"/></g></g><g clip-path="url(#s)"><g clip-path="url(#t)"><path fill="url(#u)" d="M440.707 465.738v25.082h26.727v-25.082Zm0 0"/></g></g><g clip-path="url(#v)"><g clip-path="url(#w)"><path fill="url(#x)" d="M483.36 466.02v25.082h26.726V466.02Zm0 0"/></g></g><path fill="#f0d090" fill-rule="evenodd" d="M547.195 508.363v22.543c0 .7-.57 1.27-1.27 1.27h-24.187a1.27 1.27 0 0 1-1.27-1.27v-22.543c0-.699.567-1.265 1.27-1.265h24.188c.699 0 1.27.566 1.27 1.265m-.313 40.285v22.543c0 .7-.567 1.27-1.27 1.27h-24.187c-.7 0-1.27-.57-1.27-1.27v-22.543c0-.699.57-1.27 1.27-1.27h24.187c.703 0 1.27.571 1.27 1.27m0 0"/><g clip-path="url(#y)"><g clip-path="url(#z)"><path fill="url(#A)" d="M481.75 507.02v25.082h26.723V507.02Zm0 0"/></g></g><g clip-path="url(#B)"><g clip-path="url(#C)"><path fill="url(#D)" d="M481.14 548.371v25.078h26.727v-25.078Zm0 0"/></g></g><g clip-path="url(#E)"><g clip-path="url(#F)"><path fill="url(#G)" d="M482.688 589.258v25.078h26.726v-25.078Zm0 0"/></g></g><g clip-path="url(#H)"><g clip-path="url(#I)"><path fill="url(#J)" d="M441.441 507.313v25.082h26.723v-25.082Zm0 0"/></g></g><g clip-path="url(#K)"><g clip-path="url(#L)"><path fill="url(#M)" d="M440.867 548.844v25.082h26.727v-25.082Zm0 0"/></g></g><g clip-path="url(#N)"><g clip-path="url(#O)"><path fill="url(#P)" d="M441.055 590.953v25.082h26.726v-25.082Zm0 0"/></g></g><path fill="#9c3320" fill-rule="evenodd" d="M392.316 467.832v22.54c0 .702-.566 1.269-1.265 1.269h-24.192a1.266 1.266 0 0 1-1.265-1.27v-22.539c0-.703.566-1.27 1.265-1.27h24.192c.699 0 1.265.567 1.265 1.27m37.911-42.445v22.543a1.27 1.27 0 0 1-1.266 1.27H404.77c-.7 0-1.266-.571-1.266-1.27v-22.543c0-.7.566-1.27 1.266-1.27h24.19c.7 0 1.267.57 1.267 1.27m-2.231 83.316v22.543c0 .7-.566 1.27-1.266 1.27h-24.187a1.27 1.27 0 0 1-1.27-1.27v-22.543c0-.7.567-1.27 1.27-1.27h24.187c.7 0 1.266.57 1.266 1.27m-3.769 41.926v22.543c0 .7-.57 1.265-1.27 1.265H398.77c-.7 0-1.27-.566-1.27-1.265v-22.543c0-.703.57-1.27 1.27-1.27h24.187c.7 0 1.27.567 1.27 1.27m5.336 81.441v22.543c0 .7-.567 1.27-1.266 1.27h-24.192c-.699 0-1.265-.57-1.265-1.27V632.07c0-.699.566-1.27 1.265-1.27h24.192c.7 0 1.265.571 1.265 1.27m0 0"/><g clip-path="url(#Q)"><g clip-path="url(#R)"><path fill="url(#S)" d="M344.39 550.95v25.077h26.727V550.95Zm0 0"/></g></g><g clip-path="url(#T)"><g clip-path="url(#U)"><path fill="url(#V)" d="M343.89 550.45v26.077h27.727V550.45Zm0 0"/></g></g><g clip-path="url(#W)"><g clip-path="url(#X)"><path fill="url(#Y)" d="M327.523 622.73v25.082h26.727V622.73Zm0 0"/></g></g><g clip-path="url(#Z)"><g clip-path="url(#aa)"><path fill="url(#ab)" d="M327.023 622.23v26.082h27.727V622.23Zm0 0"/></g></g></svg>